<?xml version="1.0" encoding="UTF-8" standalone="no"?>
<!-- Created with Inkscape (http://www.inkscape.org/) -->

<svg
   xmlns:dc="http://purl.org/dc/elements/1.1/"
   xmlns:cc="http://creativecommons.org/ns#"
   xmlns:rdf="http://www.w3.org/1999/02/22-rdf-syntax-ns#"
   xmlns:svg="http://www.w3.org/2000/svg"
   xmlns="http://www.w3.org/2000/svg"
   xmlns:sodipodi="http://sodipodi.sourceforge.net/DTD/sodipodi-0.dtd"
   xmlns:inkscape="http://www.inkscape.org/namespaces/inkscape"
   width="24.620909mm"
   height="12.196464mm"
   viewBox="0 0 24.620909 12.196464"
   version="1.1"
   id="svg5490"
   inkscape:version="0.92.4 (5da689c313, 2019-01-14)"
   sodipodi:docname="train-car.svg">
  <defs
     id="defs5484" />
  <sodipodi:namedview
     id="base"
     pagecolor="#ffffff"
     bordercolor="#666666"
     borderopacity="1.0"
     inkscape:pageopacity="0.0"
     inkscape:pageshadow="2"
     inkscape:zoom="1.5220513"
     inkscape:cx="91.428571"
     inkscape:cy="-47.142857"
     inkscape:document-units="mm"
     inkscape:current-layer="layer1"
     showgrid="false"
     inkscape:window-width="1920"
     inkscape:window-height="1017"
     inkscape:window-x="-8"
     inkscape:window-y="-8"
     inkscape:window-maximized="1" />
  <metadata
     id="metadata5487">
    <rdf:RDF>
      <cc:Work
         rdf:about="">
        <dc:format>image/svg+xml</dc:format>
        <dc:type
           rdf:resource="http://purl.org/dc/dcmitype/StillImage" />
        <dc:title></dc:title>
      </cc:Work>
    </rdf:RDF>
  </metadata>
  <g
     inkscape:label="Layer 1"
     inkscape:groupmode="layer"
     id="layer1"
     transform="translate(89.417595,-160.87796)">
    <path
       inkscape:connector-curvature="0"
       d="m -83.759758,171.02393 a 1.929892,1.929892 0 1 1 -3.85224,0 1.929892,1.929892 0 1 1 3.85224,0 z"
       id="path4630"
       style="display:inline;stroke-width:0.75386399" />
    <path
       inkscape:connector-curvature="0"
       d="m -79.846848,171.02393 a 1.929892,1.929892 0 1 1 -3.85224,0 1.929892,1.929892 0 1 1 3.85224,0 z"
       id="path4632"
       style="display:inline;stroke-width:0.75386399" />
    <path
       inkscape:connector-curvature="0"
       d="m -70.395648,171.02393 a 1.929892,1.929892 0 1 1 -3.85224,0 1.929892,1.929892 0 1 1 3.85224,0 z"
       id="path4634"
       style="display:inline;stroke-width:0.75386399" />
    <path
       inkscape:connector-curvature="0"
       d="m -66.482798,171.02393 a 1.929892,1.929892 0 1 1 -3.85224,0 1.929892,1.929892 0 1 1 3.85224,0 z"
       id="path4636"
       style="display:inline;stroke-width:0.75386399" />
    <rect
       style="display:inline;opacity:1;fill:#000000;fill-opacity:1;stroke:none;stroke-width:2.55810452;stroke-miterlimit:4;stroke-dasharray:none;stroke-opacity:1"
       id="rect4766"
       width="24.620909"
       height="9.9655714"
       x="-89.417595"
       y="160.87796"
       rx="2.2298143"
       ry="1.8782262" />
    <rect
       width="4.2977896"
       height="2.8895292"
       ry="1.4447646"
       x="-76.426704"
       y="162.05229"
       style="display:inline;fill:#6aa2d2;fill-opacity:1;stroke-width:0.25152346"
       id="rect4658" />
    <rect
       width="4.2977896"
       height="2.8895292"
       ry="1.4447646"
       x="-70.805992"
       y="162.05229"
       style="display:inline;fill:#6aa2d2;fill-opacity:1;stroke-width:0.25152346"
       id="rect4660" />
    <rect
       width="4.2977896"
       height="2.8895292"
       ry="1.4447646"
       x="-82.047401"
       y="162.05229"
       style="display:inline;fill:#6aa2d2;fill-opacity:1;stroke-width:0.25152346"
       id="rect4662" />
    <rect
       id="rect4780"
       style="display:inline;fill:#6aa2d2;fill-opacity:1;stroke-width:0.25152346"
       y="162.05229"
       x="-87.668114"
       ry="1.4447646"
       height="2.8895292"
       width="4.2977896" />
    <path
       style="display:inline;opacity:1;fill:#fffffa;fill-opacity:1;stroke:none;stroke-width:2.32839775;stroke-miterlimit:4;stroke-dasharray:none;stroke-opacity:1"
       d="m -65.344548,165.98163 -0.0124,2.59632 c -0.004,0.90829 -1.00982,1.63944 -2.1823,1.63944 h -19.13585 c -1.17248,0 -2.1164,-0.73119 -2.1164,-1.63944 v -2.59632 h 23.44692 z"
       id="rect4786"
       inkscape:connector-curvature="0"
       sodipodi:nodetypes="cssssccc" />
    <rect
       style="display:inline;opacity:1;fill:#ff0000;fill-opacity:1;stroke:none;stroke-width:2.5824213;stroke-miterlimit:4;stroke-dasharray:none;stroke-opacity:1"
       id="rect4793"
       width="23.451675"
       height="1.2590026"
       x="-88.795937"
       y="166.53043" />
  </g>
</svg>
