<?xml version="1.0" encoding="UTF-8" standalone="no"?>
<!-- Created with Inkscape (http://www.inkscape.org/) -->

<svg
   xmlns:dc="http://purl.org/dc/elements/1.1/"
   xmlns:cc="http://creativecommons.org/ns#"
   xmlns:rdf="http://www.w3.org/1999/02/22-rdf-syntax-ns#"
   xmlns:svg="http://www.w3.org/2000/svg"
   xmlns="http://www.w3.org/2000/svg"
   xmlns:sodipodi="http://sodipodi.sourceforge.net/DTD/sodipodi-0.dtd"
   xmlns:inkscape="http://www.inkscape.org/namespaces/inkscape"
   width="25.399017mm"
   height="11.963225mm"
   viewBox="0 0 25.399017 11.963225"
   version="1.1"
   id="svg6086"
   inkscape:version="0.92.4 (5da689c313, 2019-01-14)"
   sodipodi:docname="train-front.svg">
  <defs
     id="defs6080" />
  <sodipodi:namedview
     id="base"
     pagecolor="#ffffff"
     bordercolor="#666666"
     borderopacity="1.0"
     inkscape:pageopacity="0.0"
     inkscape:pageshadow="2"
     inkscape:zoom="0.35"
     inkscape:cx="55.141004"
     inkscape:cy="85.464817"
     inkscape:document-units="mm"
     inkscape:current-layer="layer1"
     showgrid="false"
     inkscape:window-width="716"
     inkscape:window-height="405"
     inkscape:window-x="941"
     inkscape:window-y="134"
     inkscape:window-maximized="0" />
  <metadata
     id="metadata6083">
    <rdf:RDF>
      <cc:Work
         rdf:about="">
        <dc:format>image/svg+xml</dc:format>
        <dc:type
           rdf:resource="http://purl.org/dc/dcmitype/StillImage" />
        <dc:title></dc:title>
      </cc:Work>
    </rdf:RDF>
  </metadata>
  <g
     inkscape:label="Layer 1"
     inkscape:groupmode="layer"
     id="layer1"
     transform="translate(114.75308,-160.99458)">
    <path
       style="display:inline;stroke-width:0.75386399"
       id="path4738"
       d="m -109.79877,170.90731 a 1.929892,1.929892 0 1 1 -3.85224,0 1.929892,1.929892 0 1 1 3.85224,0 z"
       inkscape:connector-curvature="0" />
    <path
       style="display:inline;stroke-width:0.75386399"
       id="path4740"
       d="m -105.88586,170.90731 a 1.929892,1.929892 0 1 1 -3.85224,0 1.929892,1.929892 0 1 1 3.85224,0 z"
       inkscape:connector-curvature="0" />
    <path
       style="display:inline;stroke-width:0.75386399"
       id="path4742"
       d="m -96.434658,170.90731 a 1.929892,1.929892 0 1 1 -3.852242,0 1.929892,1.929892 0 1 1 3.852242,0 z"
       inkscape:connector-curvature="0" />
    <path
       style="display:inline;stroke-width:0.75386399"
       id="path4744"
       d="m -92.521808,170.90731 a 1.929892,1.929892 0 1 1 -3.85224,0 1.929892,1.929892 0 1 1 3.85224,0 z"
       inkscape:connector-curvature="0" />
    <path
       id="path4746"
       style="display:inline;fill:#ffffff;stroke-width:0.26458332"
       d="m -114.19546,165.30883 24.079932,0.77994 c 0.78568,1.17851 0.68082,3.95539 -0.62863,4.34822 l -1.65946,-0.0113 h -21.791842 z"
       inkscape:connector-curvature="0"
       sodipodi:nodetypes="cccccc" />
    <path
       style="display:inline;stroke-width:0.26458332"
       id="path4748"
       d="m -114.37451,161.64046 v 4.44831 h 24.258982 l -4.51445,-4.44831 z"
       inkscape:connector-curvature="0"
       sodipodi:nodetypes="ccccc" />
    <rect
       id="rect4750"
       style="display:inline;fill:#ff0000;stroke-width:0.26458332"
       y="166.64989"
       x="-114.51283"
       ry="0.59593421"
       rx="0.65472633"
       height="1.2791653"
       width="24.945942" />
    <path
       id="path4752"
       style="display:inline;fill:#6aa2d2;fill-opacity:1;stroke:none;stroke-width:0.26458332"
       d="m -91.560838,164.7345 h -2.52834 v -2.46814 z"
       inkscape:connector-curvature="0" />
    <path
       id="path4754"
       style="display:inline;fill:none;stroke:#000000;stroke-width:0.75406247"
       d="m -114.37605,161.37161 h 19.270112 c 5.08364,3.1085 7.53855,8.65292 2.94972,9.27955 h -22.219832 z"
       inkscape:connector-curvature="0"
       sodipodi:nodetypes="ccccc" />
    <rect
       id="rect4756"
       style="display:inline;fill:#6aa2d2;fill-opacity:1;stroke-width:0.26458332"
       y="162.17853"
       x="-113.83432"
       ry="1.4447646"
       height="2.8895292"
       width="4.7556844" />
    <rect
       id="rect4758"
       style="display:inline;fill:#6aa2d2;fill-opacity:1;stroke-width:0.26458332"
       y="162.17853"
       x="-108.3069"
       ry="1.4447646"
       height="2.8895292"
       width="4.7556844" />
    <rect
       id="rect4760"
       style="display:inline;fill:#6aa2d2;fill-opacity:1;stroke-width:0.26458332"
       y="162.17853"
       x="-102.77948"
       ry="1.4447646"
       height="2.8895292"
       width="4.7556844" />
  </g>
</svg>
